<svg xmlns="http://www.w3.org/2000/svg" version="1.1" xmlns:xlink="http://www.w3.org/1999/xlink" width="1000" height="1000"><g clip-path="url(#SvgjsClipPath1213)"><rect width="1000" height="1000" fill="#ffffff"></rect><g transform="matrix(9.626955475330927,0,0,9.626955475330927,100,305.15042117930204)"><svg xmlns="http://www.w3.org/2000/svg" version="1.1" xmlns:xlink="http://www.w3.org/1999/xlink" width="83.1" height="40.48"><svg id="Layer_1" data-name="Layer 1" xmlns="http://www.w3.org/2000/svg" viewBox="0 0 83.1 40.48">
  <defs>
    <style>
      .cls-1 {
        fill: #231f20;
      }
    </style>
  <clipPath id="SvgjsClipPath1213"><rect width="1000" height="1000" x="0" y="0" rx="400" ry="400"></rect></clipPath></defs>
  <path class="cls-1" d="M75.49,4.65c2.84,1.95,4.06,3.17,6.26,8.8,6.95,17.74-14.41,33.81-31.14,24.1-6.66-3.87-15.76-17.43-22.4-22.53-12.39-9.51-19.69,5.94-11.34,10.61,7.13,3.99,10.83-3.89,14.1-3.1,5.24,1.27-4.18,8.66-8.76,9.06-9.72.85-15.65-8.89-12.88-17.21,2.62-7.88,15.93-7.92,21.65-2.97,6.18,5.35,14.93,17.55,21.15,21.67,8.08,5.36,23.49,2.39,25.6-7.24C82.3,5,58.3-.63,45.66,14.08c5.6,5.44,9.95,15.61,19.36,13.51l-12.96-15.15c2.81-1.72,13.13-6.1,18.92-.04,9.09,9.52,1.43,22.03-11.63,20.04-5.58-.85-11.94-9.92-16.44-14,0,0,.21-.18-3.66-4.31-3.2-3.41,13.78-11.53,18.14-12.38,5.32-1.04,13.6-.18,18.09,2.91ZM67.94,15.75c-1.63-1.82-3.91-5-9.8-2.29l11.19,11.1c1.16-2.6.54-6.66-1.39-8.81Z"></path>
  <path class="cls-1" d="M11.36,32.33c6.95,5.51,19.06,1.81,24.11-4.66l3.62,2.45c-11.06,13.78-28.35,11.79-36.74-3.01C-8.91,7.25,23.26-9.59,37.53,6.31c2.1,2.34.63,5.08-1.14,5.09-.81,0-7.34-6.82-14.14-6.98C4.83,4.02-.54,22.9,11.36,32.33Z"></path>
</svg></svg></g></g></svg>