<?xml version="1.0" encoding="UTF-8"?>
<svg id="Layer_1" data-name="Layer 1" xmlns="http://www.w3.org/2000/svg" viewBox="0 0 69.23 33.98">
  <defs>
    <style>
      .cls-1 {
        fill: #00bfff;
      }
    </style>
  </defs>
  <path class="cls-1" d="M62.89,3.9c2.37,1.64,3.38,2.66,5.22,7.39,5.79,14.9-12.01,28.38-25.94,20.24-5.55-3.25-13.13-14.64-18.66-18.91-10.32-7.99-16.41,4.98-9.45,8.91,5.94,3.35,9.02-3.27,11.74-2.6,4.37,1.07-3.48,7.27-7.29,7.6-8.1.71-13.04-7.46-10.73-14.45,2.18-6.62,13.27-6.65,18.04-2.49,5.15,4.49,12.44,14.73,17.62,18.19,6.73,4.5,19.57,2.01,21.33-6.08,3.8-17.51-16.19-22.23-26.72-9.88,4.67,4.57,8.29,13.1,16.13,11.34l-10.8-12.72c2.34-1.45,10.94-5.12,15.77-.03,7.58,7.99,1.19,18.49-9.69,16.83-4.65-.71-9.95-8.33-13.7-11.76,0,0,.17-.16-3.05-3.62-2.66-2.87,11.48-9.68,15.11-10.4,4.43-.87,11.33-.15,15.07,2.44ZM56.6,13.22c-1.35-1.53-3.26-4.2-8.16-1.92l9.32,9.32c.97-2.18.45-5.59-1.16-7.4Z"/>
  <path class="cls-1" d="M9.46,27.14c5.79,4.63,15.88,1.52,20.08-3.91l3.01,2.06c-9.21,11.57-23.62,9.9-30.6-2.53C-7.42,6.09,19.38-8.05,31.27,5.29c1.75,1.96.52,4.27-.95,4.27-.68,0-6.11-5.73-11.78-5.86C4.02,3.38-.45,19.23,9.46,27.14Z"/>
</svg>