<?xml version="1.0" encoding="UTF-8"?>
<svg id="Layer_1" data-name="Layer 1" xmlns="http://www.w3.org/2000/svg" viewBox="0 0 221.51 63.61">
  <defs>
    <style>
      .cls-1 {
        fill: #231f20;
      }
    </style>
  </defs>
  <g>
    <path class="cls-1" d="M75.49,4.65c2.84,1.95,4.06,3.17,6.26,8.8,6.95,17.74-14.41,33.81-31.14,24.1-6.66-3.87-15.76-17.43-22.4-22.53-12.39-9.51-19.69,5.94-11.34,10.61,7.13,3.99,10.83-3.89,14.1-3.1,5.24,1.27-4.18,8.66-8.76,9.06-9.72.85-15.65-8.89-12.88-17.21,2.62-7.88,15.93-7.92,21.65-2.97,6.18,5.35,14.93,17.55,21.15,21.67,8.08,5.36,23.49,2.39,25.6-7.24C82.3,5,58.3-.63,45.66,14.08c5.6,5.44,9.95,15.61,19.36,13.51l-12.96-15.15c2.81-1.72,13.13-6.1,18.92-.04,9.09,9.52,1.43,22.03-11.63,20.04-5.58-.85-11.94-9.92-16.44-14,0,0,.21-.18-3.66-4.31-3.2-3.41,13.78-11.53,18.14-12.38,5.32-1.04,13.6-.18,18.09,2.91ZM67.94,15.75c-1.63-1.82-3.91-5-9.8-2.29l11.19,11.1c1.16-2.6.54-6.66-1.39-8.81Z"/>
    <path class="cls-1" d="M11.36,32.33c6.95,5.51,19.06,1.81,24.11-4.66l3.62,2.45c-11.06,13.78-28.35,11.79-36.74-3.01C-8.91,7.25,23.26-9.59,37.53,6.31c2.1,2.34.63,5.08-1.14,5.09-.81,0-7.34-6.82-14.14-6.98C4.83,4.02-.54,22.9,11.36,32.33Z"/>
  </g>
  <g>
    <path class="cls-1" d="M93.54,2.26v35h-7.68V2.26h7.68Z"/>
    <path class="cls-1" d="M121.53,27.94h-15.99c0,1.15.43,2.69,1.34,3.6.48.48,1.44,1.06,3.17,1.06.19,0,1.54-.05,2.5-.58.48-.29,1.01-.77,1.34-1.44h7.34c-.34,1.2-1.01,2.88-2.59,4.42-1.58,1.54-4.08,2.98-8.74,2.98-2.83,0-6.24-.62-8.88-3.26-1.39-1.39-3.17-4.03-3.17-8.11,0-3.6,1.34-6.48,3.22-8.3,1.78-1.73,4.56-3.12,8.79-3.12,2.5,0,5.71.53,8.26,2.93,3.02,2.88,3.41,6.62,3.41,9.02v.82ZM114.47,23.53c-.19-.82-.67-1.73-1.25-2.3-1.01-1.01-2.4-1.15-3.17-1.15-1.3,0-2.3.34-3.12,1.15-.53.58-1.01,1.34-1.15,2.3h8.69Z"/>
    <path class="cls-1" d="M131.89,15.8l5.14,10.99,5.23-10.99h8.54l-11.19,21.46h-5.23l-11.09-21.46h8.59Z"/>
    <path class="cls-1" d="M170.05,15.8h7.68v21.46h-7.68v-2.35c-1.78,2.45-4.56,3.07-6.67,3.07-2.3,0-5.14-.67-7.73-3.41-2.06-2.21-3.07-4.66-3.07-7.87,0-4.03,1.58-6.86,3.31-8.59,1.82-1.82,4.66-3.02,7.73-3.02,3.46,0,5.52,1.78,6.43,2.78v-2.06ZM161.99,23c-1.06,1.01-1.54,2.4-1.54,3.5,0,1.25.53,2.59,1.49,3.5.82.77,2.16,1.44,3.46,1.44s2.5-.53,3.46-1.49c.67-.67,1.44-1.73,1.44-3.46,0-1.01-.29-2.35-1.49-3.5-.72-.67-1.82-1.39-3.46-1.39-.96,0-2.26.34-3.36,1.39Z"/>
    <path class="cls-1" d="M191.51,22.09v15.17h-7.68v-15.17h-2.45v-6.29h2.45v-7.06h7.68v7.06h4.37v6.29h-4.37Z"/>
    <path class="cls-1" d="M221.51,27.94h-15.99c0,1.15.43,2.69,1.34,3.6.48.48,1.44,1.06,3.17,1.06.19,0,1.54-.05,2.5-.58.48-.29,1.01-.77,1.34-1.44h7.34c-.34,1.2-1.01,2.88-2.59,4.42s-4.08,2.98-8.74,2.98c-2.83,0-6.24-.62-8.88-3.26-1.39-1.39-3.17-4.03-3.17-8.11,0-3.6,1.34-6.48,3.22-8.3,1.78-1.73,4.56-3.12,8.79-3.12,2.5,0,5.71.53,8.26,2.93,3.02,2.88,3.41,6.62,3.41,9.02v.82ZM214.45,23.53c-.19-.82-.67-1.73-1.25-2.3-1.01-1.01-2.4-1.15-3.17-1.15-1.3,0-2.3.34-3.12,1.15-.53.58-1.01,1.34-1.15,2.3h8.69Z"/>
  </g>
  <g>
    <path class="cls-1" d="M4.65,47.46l3.17,9,3.76-9.61,3.56,9.61,3.51-9h1.48l-5.04,12.64-3.53-9.62-3.78,9.62-4.61-12.64h1.48Z"/>
    <path class="cls-1" d="M34.67,57.56c-.22.41-.54.86-.92,1.21-.68.61-1.53.92-2.48.92-1.8,0-3.69-1.13-3.69-3.91,0-2.23,1.37-3.96,3.62-3.96,1.46,0,2.38.72,2.83,1.37.47.67.74,1.82.7,2.81h-5.82c.02,1.55,1.08,2.54,2.38,2.54.61,0,1.1-.18,1.53-.54.34-.29.61-.67.77-1.03l1.08.59ZM33.39,54.91c-.22-1.17-1.1-1.94-2.2-1.94s-2,.83-2.2,1.94h4.39Z"/>
    <path class="cls-1" d="M45.29,59.47h-1.3v-13.13h1.3v6.7c.88-1.1,2.02-1.22,2.56-1.22,2.34,0,3.64,1.94,3.64,3.96s-1.31,3.91-3.58,3.91c-1.21,0-2.05-.54-2.61-1.26v1.04ZM50.15,55.78c0-1.84-1.24-2.81-2.45-2.81s-2.48.99-2.48,2.79c0,1.53.97,2.77,2.5,2.77s2.43-1.26,2.43-2.75Z"/>
    <path class="cls-1" d="M63.83,53.73c-.18-.43-.56-.76-1.04-.76s-.9.27-.9.85c0,.54.36.7,1.21,1.06,1.08.45,1.58.79,1.87,1.15.32.4.4.79.4,1.21,0,1.57-1.13,2.45-2.57,2.45-.31,0-1.98-.04-2.61-1.91l1.12-.47c.14.4.58,1.22,1.51,1.22.85,0,1.22-.63,1.22-1.19,0-.7-.5-.94-1.21-1.24-.9-.4-1.48-.68-1.82-1.1-.29-.36-.34-.72-.34-1.1,0-1.31.92-2.09,2.18-2.09.4,0,1.46.07,2.05,1.35l-1.06.56Z"/>
    <path class="cls-1" d="M75.03,48.25c.5,0,.92.41.92.92s-.41.92-.92.92-.92-.41-.92-.92.41-.92.92-.92ZM75.67,52v7.47h-1.3v-7.47h1.3Z"/>
    <path class="cls-1" d="M86.74,53.19v6.28h-1.3v-6.28h-.79v-1.19h.79v-2.7h1.3v2.7h1.3v1.19h-1.3Z"/>
    <path class="cls-1" d="M103.18,57.56c-.22.41-.54.86-.92,1.21-.68.61-1.53.92-2.49.92-1.8,0-3.69-1.13-3.69-3.91,0-2.23,1.37-3.96,3.62-3.96,1.46,0,2.38.72,2.83,1.37.47.67.74,1.82.7,2.81h-5.82c.02,1.55,1.08,2.54,2.38,2.54.61,0,1.1-.18,1.53-.54.34-.29.61-.67.77-1.03l1.08.59ZM101.9,54.91c-.22-1.17-1.1-1.94-2.2-1.94s-2,.83-2.2,1.94h4.39Z"/>
    <path class="cls-1" d="M115.58,53.73c-.18-.43-.56-.76-1.04-.76s-.9.27-.9.85c0,.54.36.7,1.21,1.06,1.08.45,1.58.79,1.87,1.15.32.4.4.79.4,1.21,0,1.57-1.13,2.45-2.58,2.45-.31,0-1.98-.04-2.61-1.91l1.12-.47c.14.4.58,1.22,1.51,1.22.85,0,1.22-.63,1.22-1.19,0-.7-.5-.94-1.21-1.24-.9-.4-1.48-.68-1.82-1.1-.29-.36-.34-.72-.34-1.1,0-1.31.92-2.09,2.18-2.09.4,0,1.46.07,2.05,1.35l-1.06.56Z"/>
    <path class="cls-1" d="M137.93,47.46h2.45c1.21,0,2.92.13,4.43,1.4,1.1.92,2.05,2.45,2.05,4.61,0,2.52-1.24,3.87-2.11,4.61-1.1.94-2.25,1.39-4.39,1.39h-2.43v-12.01ZM139.27,58.21h1.17c.95,0,2.27-.11,3.44-1.08.9-.76,1.62-1.94,1.62-3.65,0-2.88-2.02-4.75-5.06-4.75h-1.17v9.49Z"/>
    <path class="cls-1" d="M162.9,57.56c-.22.41-.54.86-.92,1.21-.68.61-1.53.92-2.48.92-1.8,0-3.69-1.13-3.69-3.91,0-2.23,1.37-3.96,3.62-3.96,1.46,0,2.38.72,2.83,1.37.47.67.74,1.82.7,2.81h-5.82c.02,1.55,1.08,2.54,2.38,2.54.61,0,1.1-.18,1.53-.54.34-.29.61-.67.77-1.03l1.08.59ZM161.63,54.91c-.22-1.17-1.1-1.94-2.2-1.94s-2,.83-2.2,1.94h4.39Z"/>
    <path class="cls-1" d="M175.31,53.73c-.18-.43-.56-.76-1.04-.76s-.9.27-.9.85c0,.54.36.7,1.21,1.06,1.08.45,1.58.79,1.87,1.15.32.4.4.79.4,1.21,0,1.57-1.13,2.45-2.58,2.45-.31,0-1.98-.04-2.61-1.91l1.12-.47c.14.4.58,1.22,1.51,1.22.85,0,1.22-.63,1.22-1.19,0-.7-.5-.94-1.21-1.24-.9-.4-1.48-.68-1.82-1.1-.29-.36-.34-.72-.34-1.1,0-1.31.92-2.09,2.18-2.09.4,0,1.46.07,2.05,1.35l-1.06.56Z"/>
    <path class="cls-1" d="M186.5,48.25c.5,0,.92.41.92.92s-.41.92-.92.92-.92-.41-.92-.92.41-.92.92-.92ZM187.15,52v7.47h-1.3v-7.47h1.3Z"/>
    <path class="cls-1" d="M202.61,52h1.3v7.29c0,.81,0,1.96-.72,2.94-.56.76-1.58,1.39-2.99,1.39-1.28,0-2.16-.5-2.67-1.01-.5-.5-.97-1.31-.97-2.41h1.28c0,.63.25,1.19.58,1.55.54.59,1.22.72,1.8.72.92,0,1.55-.32,1.98-1.04.38-.61.41-1.28.41-1.91v-1.08c-.43.56-1.24,1.26-2.56,1.26-1.1,0-1.98-.43-2.56-1.01-.5-.5-1.08-1.44-1.08-2.95s.54-2.36,1.08-2.9c.63-.61,1.55-1.01,2.56-1.01,1.1,0,1.96.47,2.56,1.24v-1.06ZM198.51,53.67c-.63.65-.76,1.44-.76,2.05,0,.65.13,1.53.85,2.2.41.38.92.61,1.6.61s1.22-.22,1.64-.63c.5-.49.85-1.28.85-2.16s-.32-1.66-.79-2.11c-.41-.41-1.03-.67-1.69-.67-.79,0-1.33.34-1.69.7Z"/>
    <path class="cls-1" d="M213.64,52h1.3v.86c.23-.31.9-1.04,2.14-1.04.88,0,1.69.36,2.14,1.03.38.56.43,1.17.43,2v4.63h-1.3v-4.59c0-.45-.04-.97-.34-1.37-.25-.32-.65-.54-1.22-.54-.45,0-.94.13-1.31.58-.5.59-.54,1.48-.54,2.02v3.91h-1.3v-7.47Z"/>
  </g>
</svg>